# xmcd CD database file
#
# Track frame offsets:
#	150
#	21455
#	44330
#	67555
#	87567
#	100155
#	137812
#	158802
#	177190
#	202292
#
# Disc length: 3059 seconds
#
# Revision: 0
# Processed by: cddbd v1.5.1PL0 Copyright (c) Steve Scherf et al.
# Submitted via: CDex 1.51
#
DISCID=880bf10a
DTITLE=堤 智恵子 - Tiny Pocket
DYEAR=1900
DGENRE=Jazz
TTITLE0=Brazing Sun
TTITLE1=Anemone
TTITLE2=Seamless
TTITLE3=Usual Alley
TTITLE4=Que Bom!
TTITLE5=Listen?or Dance?
TTITLE6=Unearthly Estate
TTITLE7=Sweet and Sweet
TTITLE8=Millennium Delight
TTITLE9=Tiny Pocket
EXTD=
EXTT0=
EXTT1=
EXTT2=
EXTT3=
EXTT4=
EXTT5=
EXTT6=
EXTT7=
EXTT8=
EXTT9=
PLAYORDER=
